<svg width="64" height="64" viewBox="0 0 64 64" version="1.1" xmlns="http://www.w3.org/2000/svg" xmlns:svg="http://www.w3.org/2000/svg">
<rect fill="#9a9996" width="64" height="44" x="0" y="20" rx="12" ry="12" />
<rect fill="#deddda" width="64" height="56" x="0" y="0" rx="12" ry="12" />
<path fill="#241f31" d="m 44.720703,6.8007811 c -1.786659,0 -3.333959,0.199612 -4.640625,0.5996096 -1.306662,0.3999988 -2.399298,0.8259648 -3.279295,1.2792968 v 4.8007815 c 0.93333,-0.453332 1.999222,-0.866902 3.199218,-1.240235 1.226664,-0.399998 2.572399,-0.599609 4.039064,-0.599609 1.546662,0 2.814115,0.292241 3.80078,0.878906 0.986665,0.559998 1.71922,1.440629 2.19922,2.640625 0.506665,1.17333 0.788463,2.693886 0.841796,4.560547 H 35.400392 v 1.839844 c 0,3.333323 0.372476,6.080241 1.11914,8.240234 0.746665,2.159994 1.880394,3.773181 3.400392,4.839844 1.546662,1.039997 3.507534,1.558594 5.880858,1.558594 1.733329,0 3.266279,-0.306591 4.59961,-0.919922 1.359995,-0.639998 2.506122,-1.572165 3.439453,-2.798828 0.933332,-1.253329 1.639144,-2.786282 2.11914,-4.599609 0.48,-1.839995 0.720703,-3.961336 0.720703,-6.361329 0,-3.226656 -0.440315,-5.920085 -1.32031,-8.080078 C 54.506048,11.252793 53.19945,9.6004651 51.439456,8.4804686 49.679462,7.3604725 47.440697,6.8007811 44.720703,6.8007811 Z M 41,24 h 9.839845 c -0.05333,1.759995 -0.279685,3.200316 -0.679687,4.320313 -0.373342,1.119996 -0.920629,1.947137 -1.640625,2.480468 -0.719997,0.506665 -1.613023,0.759766 -2.679689,0.759766 -1.62666,0 -2.840625,-0.62753 -3.640623,-1.880859 C 41.399224,28.426358 41,26.533325 41,24 Z" />
<path fill="#241f31" d="M 14.38086,19.300781 6.5000001,47.859376 H 12.060547 L 13.8125,40.779297 h 8.335938 l 1.751953,7.080079 H 29.69922 L 21.779298,19.300781 Z m 3.599609,4.279297 c 0.133335,0.586665 0.267058,1.18745 0.400391,1.800781 l 0.398438,1.759766 c 0.159998,0.586665 0.308073,1.185497 0.441406,1.798828 l 1.742187,7.041016 h -5.964843 l 1.742187,-7.041016 c 0.159999,-0.613331 0.30612,-1.212163 0.439453,-1.798828 l 0.400391,-1.759766 c 0.133332,-0.613331 0.267057,-1.214116 0.40039,-1.800781 z" />
</svg>
